<svg height="2334" width="720" xmlns="http://www.w3.org/2000/svg">
<rect height="2334" fill="#555" width="720"></rect>
<text fill="#7f7" font-family="Courier New" font-size="12" xml:space="preserve">
<tspan x="10" y="26"></tspan>
<tspan x="10" y="42">&gt; npmdoc-eslint-config-airbnb@0.0.2 test /home/travis/build/npmdoc/node-npmdoc-eslint-config-air\</tspan>
<tspan x="10" y="58">bnb</tspan>
<tspan x="10" y="74">&gt; (set -e; export PORT=$(utility2 shServerPortRandom); utility2 test test.js)</tspan>
<tspan x="10" y="90"></tspan>
<tspan x="10" y="106"></tspan>
<tspan x="10" y="122">[MODE_BUILD=npmTest] - 2017-03-25T11:56:13Z - npm-testing /home/travis/build/npmdoc/node-npmdoc-\</tspan>
<tspan x="10" y="138">eslint-config-airbnb</tspan>
<tspan x="10" y="154"></tspan>
<tspan x="10" y="170"></tspan>
<tspan x="10" y="186">covering $ /home/travis/.nvm/versions/node/v7.7.4/bin/node /home/travis/build/npmdoc/node-npmdoc\</tspan>
<tspan x="10" y="202">-eslint-config-airbnb/test.js</tspan>
<tspan x="10" y="218">merging file:///home/travis/build/npmdoc/node-npmdoc-eslint-config-airbnb/tmp/build/test-report.\</tspan>
<tspan x="10" y="234">json to test-report</tspan>
<tspan x="10" y="250">&gt; server listening on http-port 45847</tspan>
<tspan x="10" y="266">created apidoc file:///home/travis/build/npmdoc/node-npmdoc-eslint-config-airbnb/tmp/build/apido\</tspan>
<tspan x="10" y="282">c.html</tspan>
<tspan x="10" y="298"></tspan>
<tspan x="10" y="314"></tspan>
<tspan x="10" y="330">browserTest - created electron entry-page /home/travis/build/npmdoc/node-npmdoc-eslint-config-ai\</tspan>
<tspan x="10" y="346">rbnb/tmp/electron.15b0552f4bd0.15da206cf30cb.html</tspan>
<tspan x="10" y="362"></tspan>
<tspan x="10" y="378">[node test-case 1 of 6 passed] - testCase_buildLib_default</tspan>
<tspan x="10" y="394">[node test-case 2 of 6 passed] - testCase_buildReadme_default</tspan>
<tspan x="10" y="410">[node test-case 3 of 6 passed] - testCase_buildTest_default</tspan>
<tspan x="10" y="426"></tspan>
<tspan x="10" y="442">browserTest - created electron entry-page /home/travis/build/npmdoc/node-npmdoc-eslint-config-ai\</tspan>
<tspan x="10" y="458">rbnb/tmp/electron.15b0552f5050.ac8630c9417c9.html</tspan>
<tspan x="10" y="474"></tspan>
<tspan x="10" y="490">(node:4908) DeprecationWarning: node --debug is deprecated. Please use node --inspect instead.</tspan>
<tspan x="10" y="506">Xlib:  extension "RANDR" missing on display ":99.0".</tspan>
<tspan x="10" y="522">Xlib:  extension "RANDR" missing on display ":99.0".</tspan>
<tspan x="10" y="538">&gt; server listening on http-port 47004</tspan>
<tspan x="10" y="554"></tspan>
<tspan x="10" y="570">/home/travis/build/npmdoc/node-npmdoc-eslint-config-airbnb/node_modules/utility2/lib.utility2.sh\</tspan>
<tspan x="10" y="586">.html.js</tspan>
<tspan x="10" y="602"> #1 Line too long.</tspan>
<tspan x="10" y="618">    process.stdout.write('export npm_package_' + key.replace((/\W/g), '_') + '=' + JSON.stringif\</tspan>
<tspan x="10" y="634">y(value) + ';'); // Line 1445, Pos 116</tspan>
<tspan x="10" y="650"></tspan>
<tspan x="10" y="666"></tspan>
<tspan x="10" y="682">/home/travis/build/npmdoc/node-npmdoc-eslint-config-airbnb/node_modules/utility2/lib.utility2.sh\</tspan>
<tspan x="10" y="698">.html.js</tspan>
<tspan x="10" y="714"> #1 Line too long.</tspan>
<tspan x="10" y="730">    process.stdout.write('export npm_package_' + key.replace((/\W/g), '_') + '=' + JSON.stringif\</tspan>
<tspan x="10" y="746">y(value) + ';'); // Line 1445, Pos 116</tspan>
<tspan x="10" y="762"></tspan>
<tspan x="10" y="778">merging file:///home/travis/build/npmdoc/node-npmdoc-eslint-config-airbnb/tmp/build/test-report.\</tspan>
<tspan x="10" y="794">json to test-report</tspan>
<tspan x="10" y="810">Xlib:  extension "RANDR" missing on display ":99.0".</tspan>
<tspan x="10" y="826">merging file:///home/travis/build/npmdoc/node-npmdoc-eslint-config-airbnb/tmp/build/test-report.\</tspan>
<tspan x="10" y="842">json to test-report</tspan>
<tspan x="10" y="858">[4943:0325/115615:WARNING:audio_manager.cc(314)] Multiple instances of AudioManager detected</tspan>
<tspan x="10" y="874">[4943:0325/115615:WARNING:audio_manager.cc(275)] Multiple instances of AudioManager detected</tspan>
<tspan x="10" y="890">[4964:0325/115615:ERROR:sandbox_linux.cc(343)] InitializeSandbox() called with multiple threads \</tspan>
<tspan x="10" y="906">in process gpu-process. </tspan>
<tspan x="10" y="922">Xlib:  extension "RANDR" missing on display ":99.0".</tspan>
<tspan x="10" y="938">[4939:0325/115615:WARNING:audio_manager.cc(314)] Multiple instances of AudioManager detected</tspan>
<tspan x="10" y="954">[4939:0325/115615:WARNING:audio_manager.cc(275)] Multiple instances of AudioManager detected</tspan>
<tspan x="10" y="970">[4989:0325/115615:ERROR:sandbox_linux.cc(343)] InitializeSandbox() called with multiple threads \</tspan>
<tspan x="10" y="986">in process gpu-process. </tspan>
<tspan x="10" y="1002">[4939:0325/115615:ERROR:browser_gpu_channel_host_factory.cc(131)] Failed to create channel.</tspan>
<tspan x="10" y="1018"></tspan>
<tspan x="10" y="1034">browserTest - opened url file:///home/travis/build/npmdoc/node-npmdoc-eslint-config-airbnb/tmp/b\</tspan>
<tspan x="10" y="1050">uild/apidoc.html</tspan>
<tspan x="10" y="1066"></tspan>
<tspan x="10" y="1082"></tspan>
<tspan x="10" y="1098">browserTest - opened url http://127.0.0.1:45847?modeTest=1</tspan>
<tspan x="10" y="1114"></tspan>
<tspan x="10" y="1130">[4943:0325/115617:INFO:CONSOLE(203)] "----------|-----------|-----------|-----------|-----------\</tspan>
<tspan x="10" y="1146">|</tspan>
<tspan x="10" y="1162">File      |   % Stmts |% Branches |   % Funcs |   % Lines |</tspan>
<tspan x="10" y="1178">----------|-----------|-----------|-----------|-----------|</tspan>
<tspan x="10" y="1194">----------|-----------|-----------|-----------|-----------|</tspan>
<tspan x="10" y="1210">All files |       100 |       100 |       100 |       100 |</tspan>
<tspan x="10" y="1226">----------|-----------|-----------|-----------|-----------|</tspan>
<tspan x="10" y="1242">", source: file:///home/travis/build/npmdoc/node-npmdoc-eslint-config-airbnb/tmp/electron.15b055\</tspan>
<tspan x="10" y="1258">2f5050.ac8630c9417c9.html (203)</tspan>
<tspan x="10" y="1274">[4943:0325/115617:INFO:CONSOLE(203)] "created coverage file:///tmp/build/coverage.html/index.htm\</tspan>
<tspan x="10" y="1290">l", source: file:///home/travis/build/npmdoc/node-npmdoc-eslint-config-airbnb/tmp/electron.15b05\</tspan>
<tspan x="10" y="1306">52f5050.ac8630c9417c9.html (203)</tspan>
<tspan x="10" y="1322">[node test-case 4 of 6 passed] - testCase_buildApp_default</tspan>
<tspan x="10" y="1338"></tspan>
<tspan x="10" y="1354">browserTest - created screen-capture file:///home/travis/build/npmdoc/node-npmdoc-eslint-config-\</tspan>
<tspan x="10" y="1370">airbnb/tmp/build/screen-capture.npmTest.browser._2Fhome_2Ftravis_2Fbuild_2Fnpmdoc_2Fnode-npmdoc-\</tspan>
<tspan x="10" y="1386">eslint-config-airbnb_2Ftmp_2Fbuild_2Fapidoc.html.png</tspan>
<tspan x="10" y="1402"></tspan>
<tspan x="10" y="1418"></tspan>
<tspan x="10" y="1434">browserTest - exit-code 0 - file:///home/travis/build/npmdoc/node-npmdoc-eslint-config-airbnb/tm\</tspan>
<tspan x="10" y="1450">p/build/apidoc.html</tspan>
<tspan x="10" y="1466"></tspan>
<tspan x="10" y="1482">[node test-case 5 of 6 passed] - testCase_buildApidoc_default</tspan>
<tspan x="10" y="1498"></tspan>
<tspan x="10" y="1514">browserTest - created screen-capture file:///home/travis/build/npmdoc/node-npmdoc-eslint-config-\</tspan>
<tspan x="10" y="1530">airbnb/tmp/build/screen-capture.npmTest.browser..png</tspan>
<tspan x="10" y="1546"></tspan>
<tspan x="10" y="1562"></tspan>
<tspan x="10" y="1578">browserTest - exit-code 0 - http://127.0.0.1:45847?modeTest=1</tspan>
<tspan x="10" y="1594"></tspan>
<tspan x="10" y="1610"></tspan>
<tspan x="10" y="1626">browserTest - merged coverage from /home/travis/build/npmdoc/node-npmdoc-eslint-config-airbnb/tm\</tspan>
<tspan x="10" y="1642">p/coverage.npmTest.browser.%2F.json</tspan>
<tspan x="10" y="1658"></tspan>
<tspan x="10" y="1674"></tspan>
<tspan x="10" y="1690">browserTest - merging test-report from /home/travis/build/npmdoc/node-npmdoc-eslint-config-airbn\</tspan>
<tspan x="10" y="1706">b/tmp/test-report.npmTest.browser.%2F.json</tspan>
<tspan x="10" y="1722"></tspan>
<tspan x="10" y="1738">[node test-case 6 of 6 passed] - testCase_webpage_default</tspan>
<tspan x="10" y="1754">-----------------------------------------|-----------|-----------|-----------|-----------|</tspan>
<tspan x="10" y="1770">File                                     |   % Stmts |% Branches |   % Funcs |   % Lines |</tspan>
<tspan x="10" y="1786">-----------------------------------------|-----------|-----------|-----------|-----------|</tspan>
<tspan x="10" y="1802">   node-npmdoc-eslint-config-airbnb/     |       100 |       100 |       100 |       100 |</tspan>
<tspan x="10" y="1818">      example.js                         |       100 |       100 |       100 |       100 |</tspan>
<tspan x="10" y="1834">      lib.npmdoc_eslint_config_airbnb.js |       100 |       100 |       100 |       100 |</tspan>
<tspan x="10" y="1850">      test.js                            |       100 |       100 |       100 |       100 |</tspan>
<tspan x="10" y="1866">-----------------------------------------|-----------|-----------|-----------|-----------|</tspan>
<tspan x="10" y="1882">All files                                |       100 |       100 |       100 |       100 |</tspan>
<tspan x="10" y="1898">-----------------------------------------|-----------|-----------|-----------|-----------|</tspan>
<tspan x="10" y="1914"></tspan>
<tspan x="10" y="1930">created coverage file:///home/travis/build/npmdoc/node-npmdoc-eslint-config-airbnb/tmp/build/cov\</tspan>
<tspan x="10" y="1946">erage.html/index.html</tspan>
<tspan x="10" y="1962"></tspan>
<tspan x="10" y="1978">/home/travis/build/npmdoc/node-npmdoc-eslint-config-airbnb/node_modules/utility2/lib.utility2.sh\</tspan>
<tspan x="10" y="1994">.html.js</tspan>
<tspan x="10" y="2010"> #1 Line too long.</tspan>
<tspan x="10" y="2026">    process.stdout.write('export npm_package_' + key.replace((/\W/g), '_') + '=' + JSON.stringif\</tspan>
<tspan x="10" y="2042">y(value) + ';'); // Line 1445, Pos 116</tspan>
<tspan x="10" y="2058"></tspan>
<tspan x="10" y="2074">merging file:///home/travis/build/npmdoc/node-npmdoc-eslint-config-airbnb/tmp/build/test-report.\</tspan>
<tspan x="10" y="2090">json to test-report</tspan>
<tspan x="10" y="2106"></tspan>
<tspan x="10" y="2122">-------------------------------------------------------</tspan>
<tspan x="10" y="2138">| test-report - buildNpmdoc - node - linux v7.7.4 - 2017-03-25T11:56:03.647Z</tspan>
<tspan x="10" y="2154">|   16220 ms            0 failed        6 passed      |</tspan>
<tspan x="10" y="2170">-------------------------------------------------------</tspan>
<tspan x="10" y="2186"></tspan>
<tspan x="10" y="2202">created test-report file:///home/travis/build/npmdoc/node-npmdoc-eslint-config-airbnb/tmp/build/\</tspan>
<tspan x="10" y="2218">test-report.html</tspan>
<tspan x="10" y="2234"></tspan>
<tspan x="10" y="2250"></tspan>
<tspan x="10" y="2266">npmTest - 0 failed tests</tspan>
<tspan x="10" y="2282"></tspan>
<tspan x="10" y="2298"></tspan>
<tspan x="10" y="2314">[MODE_BUILD=npmTest] - 2017-03-25T11:56:22Z - EXIT_CODE - 0</tspan>
</text>
</svg>
